<?xml version="1.0" ?><svg data-name="Layer 45" height="24" id="Layer_45" viewBox="0 0 24 24" width="24" xmlns="http://www.w3.org/2000/svg"><title/><path d="M21.80731,16.195a2.79909,2.79909,0,0,1-2.54906,2.53905C17.69062,18.86413,15.36708,19,12.5001,19c-3.45351,0-6.06016-.14114-7.745-.27345a2.79847,2.79847,0,0,1-2.56388-2.53829C2.08863,15.11654,2,13.70862,2,12.0423c0-1.70883.08935-3.142.19251-4.22729a2.79931,2.79931,0,0,1,2.5641-2.54168C6.44145,5.14106,9.04758,5,12.5001,5c2.867,0,5.19052.13587,6.75814.26595A2.79909,2.79909,0,0,1,21.80731,7.805C21.91054,8.88451,22,10.30807,22,12S21.91054,15.11549,21.80731,16.195Z" style="fill:#fa6d62"/><polygon points="9.776 14.939 9.776 9.061 15.574 12 9.776 14.939" style="fill:#fff"/></svg>